# xmcd CD database file
#
# Track frame offsets:
#	150
#	42662
#	62877
#	87877
#	112127
#	145882
#	166150
#	186352
#	204380
#	234627
#
# Disc length: 3419 seconds
#
# Revision: 0
# Processed by: cddbd v1.5.1PL0 Copyright (c) Steve Scherf et al.
# Submitted via: CDex 1.51
#
DISCID=920d590a
DTITLE=Bindu - The Rhythm of Love
DYEAR=2004
DGENRE=New Age
TTITLE0=Seagull
TTITLE1=Delicate but Strong
TTITLE2=Celtic Waltz
TTITLE3=Om Shanti
TTITLE4=Cicada
TTITLE5=Wings
TTITLE6=Hymn
TTITLE7=Planet of the Apes
TTITLE8=The Rhythm of Love
TTITLE9=There is Light
EXTD=YEAR: 2004
EXTT0=
EXTT1=
EXTT2=
EXTT3=
EXTT4=
EXTT5=
EXTT6=
EXTT7=
EXTT8=
EXTT9=
PLAYORDER=
